<svg id="Layer_1" data-name="Layer 1" xmlns="http://www.w3.org/2000/svg" viewBox="0 0 286.3 139.75"><defs><style>.cls-1{fill:#001689;}.cls-2{fill:#3fae2a;}</style></defs><title>BEDAS_Logo_svg</title><path class="cls-1" d="M282.11,5.74H276.2V0h5.92Zm-7,4.32h8V38.61h-8Zm-18,19.09V33a5.92,5.92,0,0,1-.49,2.39,6.07,6.07,0,0,1-1.35,2,6.29,6.29,0,0,1-2,1.31,6.46,6.46,0,0,1-2.46.48h-2.28l-3.32,6.13h-4.77l1.4-6.13h-3a6.46,6.46,0,0,1-2.46-.48,6.32,6.32,0,0,1-2-1.31,6.09,6.09,0,0,1-1.35-2,5.92,5.92,0,0,1-.49-2.39V15.69a5.92,5.92,0,0,1,.49-2.39,6.11,6.11,0,0,1,1.35-2,6.33,6.33,0,0,1,2-1.31,6.46,6.46,0,0,1,2.46-.48h11.94a6.46,6.46,0,0,1,2.46.48,6.31,6.31,0,0,1,2,1.31,6.1,6.1,0,0,1,1.35,2,5.92,5.92,0,0,1,.49,2.39v3.87H249.7V17.35a.8.8,0,0,0-.23-.55.85.85,0,0,0-.65-.25h-7.63a.84.84,0,0,0-.65.25.8.8,0,0,0-.23.55v14a.8.8,0,0,0,.23.55.84.84,0,0,0,.65.25h7.63a.85.85,0,0,0,.65-.25.8.8,0,0,0,.23-.55V29.16ZM213.3,5.74h-5.92V0h5.92Zm-7,4.32h8V38.61h-8ZM166.15,35.84l12.61-19.3H166.15V10.07h24v2.81l-12.3,18.74h12.3v7h-24ZM136,26.19h4.77l-2.39-6.78Zm6.85,6.08H134l-2.28,6.33h-8.2l11.21-28.54h7.47l11.21,28.54h-8.2ZM102.37.62a6.28,6.28,0,0,1-1.95,4.67A5.72,5.72,0,0,1,98.48,6.5a6.26,6.26,0,0,1-2.18.4A5.9,5.9,0,0,1,94,6.45,6.09,6.09,0,0,1,92.1,5.19,6.24,6.24,0,0,1,90.23.62h5.14a.89.89,0,0,0,.29.7,1,1,0,0,0,.65.25A1,1,0,0,0,97,1.35a.87.87,0,0,0,.29-.73ZM96.82,23.43H108.6V33a5.91,5.91,0,0,1-.49,2.39,6.07,6.07,0,0,1-1.35,2,6.31,6.31,0,0,1-2,1.31,6.45,6.45,0,0,1-2.46.48H90.33a6.46,6.46,0,0,1-2.47-.48,6.32,6.32,0,0,1-2-1.31,6.08,6.08,0,0,1-1.35-2A5.9,5.9,0,0,1,84,33V15.69a5.9,5.9,0,0,1,.49-2.39,6.11,6.11,0,0,1,1.35-2,6.34,6.34,0,0,1,2-1.31,6.46,6.46,0,0,1,2.47-.48h11.93a6.45,6.45,0,0,1,2.46.48,6.32,6.32,0,0,1,2,1.31,6.1,6.1,0,0,1,1.35,2,5.9,5.9,0,0,1,.49,2.39v3.87h-7.47V17.35a.8.8,0,0,0-.23-.55.84.84,0,0,0-.65-.25H92.62a.85.85,0,0,0-.65.25.8.8,0,0,0-.23.55v14a.8.8,0,0,0,.23.55.85.85,0,0,0,.65.25h7.63a.84.84,0,0,0,.65-.25.79.79,0,0,0,.23-.55V29.16H96.82Zm-38-6.08a.8.8,0,0,0-.23-.55.85.85,0,0,0-.65-.25H48.69a.84.84,0,0,0-.65.25.79.79,0,0,0-.23.55v14a.79.79,0,0,0,.23.55.84.84,0,0,0,.65.25h9.24a.85.85,0,0,0,.65-.25.8.8,0,0,0,.23-.55ZM66.54,33A5.89,5.89,0,0,1,66,35.36a6.08,6.08,0,0,1-1.35,2,6.32,6.32,0,0,1-2,1.31,6.46,6.46,0,0,1-2.47.48H46.4a6.46,6.46,0,0,1-2.46-.48,6.32,6.32,0,0,1-2-1.31,6.08,6.08,0,0,1-1.35-2A5.92,5.92,0,0,1,40.07,33V15.69a5.92,5.92,0,0,1,.49-2.39,6.11,6.11,0,0,1,1.35-2,6.34,6.34,0,0,1,2-1.31,6.46,6.46,0,0,1,2.46-.48h13.8a6.46,6.46,0,0,1,2.47.48,6.33,6.33,0,0,1,2,1.31,6.11,6.11,0,0,1,1.35,2,5.88,5.88,0,0,1,.49,2.39Zm-59-6.08v4.82H14.2a.84.84,0,0,0,.65-.25.79.79,0,0,0,.24-.55V27.7a.79.79,0,0,0-.24-.55.84.84,0,0,0-.65-.25Zm0-10.45v4.77h5.92a.84.84,0,0,0,.65-.25.8.8,0,0,0,.23-.55V17.25a.8.8,0,0,0-.23-.55.84.84,0,0,0-.65-.25ZM22.87,33a5.06,5.06,0,0,1-.47,2.16,5.89,5.89,0,0,1-1.24,1.76,6.06,6.06,0,0,1-1.82,1.21,5.53,5.53,0,0,1-2.23.45H-.22V10.07h16.5a5.53,5.53,0,0,1,2.23.45,6.08,6.08,0,0,1,1.81,1.21,5.84,5.84,0,0,1,1.25,1.76A5.05,5.05,0,0,1,22,15.64v3.72a4.6,4.6,0,0,1-1.3,3.29,5,5,0,0,1-1.24.93,4.28,4.28,0,0,1-1.3.45,4.73,4.73,0,0,1,1.58.4,6,6,0,0,1,1.51,1,4.71,4.71,0,0,1,1.14,1.48,4.35,4.35,0,0,1,.44,2Z"/><path class="cls-2" d="M266.7,139.23l-6.49-11.41v11.41h-7.42V110.69h5.55l9.76,17.08,9.76-17.08h5.55v28.54H276V127.82l-6.49,11.41Zm-46-28.54h8v28.54h-8Zm-30.47,6.48v22.06h-7.73V117.17H173v-6.48h26.62v6.48ZM144,110.69h8v28.54h-8Zm-29.85-9.45a6.28,6.28,0,0,1-1.95,4.67,5.7,5.7,0,0,1-1.95,1.21,6.28,6.28,0,0,1-2.18.4,5.91,5.91,0,0,1-2.28-.45,6.12,6.12,0,0,1-1.92-1.26,6.24,6.24,0,0,1-1.87-4.57h5.14a.89.89,0,0,0,.29.7,1,1,0,0,0,.65.25,1,1,0,0,0,.65-.23.87.87,0,0,0,.29-.73Zm-5.55,22.81h11.78v9.55a5.89,5.89,0,0,1-.49,2.39,6.07,6.07,0,0,1-1.35,2,6.3,6.3,0,0,1-2,1.31,6.43,6.43,0,0,1-2.46.48H102.09a6.44,6.44,0,0,1-2.47-.48,6.28,6.28,0,0,1-2-1.31,6.1,6.1,0,0,1-1.35-2,5.89,5.89,0,0,1-.49-2.39V116.32a5.9,5.9,0,0,1,.49-2.39,6.14,6.14,0,0,1,1.35-2,6.28,6.28,0,0,1,2-1.31,6.48,6.48,0,0,1,2.47-.48H114a6.47,6.47,0,0,1,2.46.48,6.3,6.3,0,0,1,2,1.31,6.1,6.1,0,0,1,1.35,2,5.9,5.9,0,0,1,.49,2.39v3.87h-7.47V118a.8.8,0,0,0-.23-.55.84.84,0,0,0-.65-.25h-7.63a.84.84,0,0,0-.65.25.79.79,0,0,0-.23.55v14a.79.79,0,0,0,.23.55.84.84,0,0,0,.65.25H112a.84.84,0,0,0,.65-.25.79.79,0,0,0,.23-.55v-2.16h-4.31Zm-50.4,2.76h4.77L60.56,120ZM65,132.9H56.1l-2.28,6.33h-8.2l11.21-28.54H64.3L75.5,139.23h-8.2ZM17.58,118.48a.8.8,0,0,0-.23-.55.84.84,0,0,0-.65-.25H7.56v14.57H16.7a.84.84,0,0,0,.65-.25.79.79,0,0,0,.23-.55Zm7.78,14.62a5.9,5.9,0,0,1-.49,2.39,6.07,6.07,0,0,1-1.35,2,6.27,6.27,0,0,1-2,1.3,6.43,6.43,0,0,1-2.46.48H-.22V110.69H19a6.43,6.43,0,0,1,2.46.48,6.33,6.33,0,0,1,2,1.31,6.06,6.06,0,0,1,1.35,2,5.91,5.91,0,0,1,.49,2.39ZM259.17,60.38h7.73V71.94l10.38-11.56h9L273.6,74.55l12.92,14.37h-9.7l-9.91-11.05V88.92h-7.73Zm-19-4.32h-5.92V50.33h5.92Zm-7,4.32h8V88.92h-8ZM214.75,73a5.8,5.8,0,0,1-1.2,3.59,6.09,6.09,0,0,1-3.06,2.19l7.42,10.1H209l-7.06-9.75h-1.71v9.75h-7.73V60.38h15.93a6.45,6.45,0,0,1,2.46.48,6.32,6.32,0,0,1,2,1.31,6,6,0,0,1,1.35,2,5.89,5.89,0,0,1,.49,2.39ZM207,68.52a1.64,1.64,0,0,0-.47-1.16,1.75,1.75,0,0,0-1.35-.5h-5v6.43h5a1.75,1.75,0,0,0,1.35-.5,1.65,1.65,0,0,0,.47-1.16Zm-38.53-1.66V88.92h-7.73V66.86h-9.45V60.38h26.62v6.48Zm-56-6.48h7.73V71.94l10.38-11.56h9L126.95,74.55l12.92,14.37h-9.7l-9.91-11.05V88.92h-7.73ZM74.4,88.92V60.38H96v6.48H82.19v4.47H92.57v6.08H82.19v4.52H96.4v7Zm-36.51,0V60.38h7.78V81.93H59.85v7Zm-38.12,0V60.38H21.42v6.48H7.56v4.47H17.94v6.08H7.56v4.52H21.78v7Z"/></svg>